<svg width="580" height="400" xmlns="http://www.w3.org/2000/svg">
 <!-- Created with Method Draw - http://github.com/duopixel/Method-Draw/ -->

 <g>
  <title>background</title>
  <rect fill="#fff" id="canvas_background" height="402" width="582" y="-1" x="-1"/>
  <g display="none" id="canvasGrid">
   <rect fill="url(#gridpattern)" stroke-width="0" y="0" x="0" height="100%" width="100%" id="svg_2"/>
  </g>
 </g>
 <g>
  <title>Layer 1</title>
  <line stroke-linecap="null" stroke-linejoin="null" id="svg_33" y2="62.5" x2="468.5" y1="43.5" x1="251.5" stroke-width="1.5" stroke="#007fff" fill="none"/>
  <line stroke-linecap="null" stroke-linejoin="null" id="svg_34" y2="189.5" x2="368.5" y1="44.5" x1="239.5" stroke-width="1.5" stroke="#000000" fill="none"/>
  <line stroke-linecap="null" stroke-linejoin="null" id="svg_31" y2="172.5" x2="195.5" y1="46.5" x1="231.5" stroke-width="1.5" stroke="#007fff" fill="none"/>
  <line stroke-linecap="null" stroke-linejoin="null" id="svg_43" y2="324.5" x2="85.5" y1="107.5" x1="66.5" stroke-width="1.5" stroke="#ff00ff" fill="none"/>
  <line stroke-linecap="null" stroke-linejoin="null" id="svg_30" y2="177.5" x2="195.5" y1="110.5" x1="78.5" stroke-width="1.5" stroke="#007fff" fill="none"/>
  <line stroke-linecap="null" stroke-linejoin="null" id="svg_32" y2="37.5" x2="235.5" y1="99.5" x1="62.5" stroke-width="1.5" stroke="#ff00ff" fill="none"/>
  <line stroke-linecap="null" stroke-linejoin="null" id="svg_37" y2="189.5" x2="361.5" y1="180.5" x1="194.5" stroke-width="1.5" stroke="#000000" fill="none"/>
  <line stroke-linecap="null" stroke-linejoin="null" id="svg_39" y2="269.5" x2="485.5" y1="199.5" x1="371.5" stroke-width="1.5" stroke="#007fff" fill="none"/>
  <line stroke-linecap="null" stroke-linejoin="null" id="svg_38" y2="262.5" x2="488.5" y1="66.5" x1="471.5" stroke-width="1.5" stroke="#007fff" fill="none"/>
  <ellipse ry="27.5" rx="27.5" id="svg_1" cy="103" cx="65" stroke-width="1.5" stroke="#fff" fill="#007fff"/>
  <ellipse ry="27.5" rx="27.5" id="svg_6" cy="38" cx="234" stroke-width="1.5" stroke="#000000" fill="#00ff00"/>
  <ellipse ry="27.5" rx="27.5" id="svg_7" cy="178" cx="194" stroke-width="1.5" stroke="#fff" fill="#007fff"/>
  <ellipse ry="27.5" rx="27.5" id="svg_8" cy="329" cx="88" stroke-width="1.5" stroke="#fff" fill="#007fff"/>
  <ellipse ry="27.5" rx="27.5" id="svg_25" cy="64" cx="469" stroke-width="1.5" stroke="#fff" fill="#007fff"/>
  <ellipse ry="27.5" rx="27.5" id="svg_26" cy="188" cx="370" stroke-width="1.5" stroke="#fff" fill="#007fff"/>
  <ellipse ry="27.5" rx="27.5" id="svg_27" cy="346" cx="295" stroke-width="1.5" stroke="#fff" fill="#007fff"/>
  <ellipse ry="27.5" rx="27.5" id="svg_28" cy="267" cx="488" stroke-width="1.5" stroke="#fff" fill="#007fff"/>
  <line stroke-linecap="null" stroke-linejoin="null" id="svg_35" y2="191.5" x2="372.5" y1="73.5" x1="466.5" stroke-width="1.5" stroke="#007fff" fill="none"/>
  <line stroke-linecap="null" stroke-linejoin="null" id="svg_36" y2="344.5" x2="289.5" y1="197.5" x1="373.5" stroke-width="1.5" stroke="#007fff" fill="none"/>
  <line stroke-linecap="null" stroke-linejoin="null" id="svg_40" y2="270.5" x2="481.5" y1="349.5" x1="296.5" stroke-width="1.5" stroke="#007fff" fill="none"/>
  <line stroke-linecap="null" stroke-linejoin="null" id="svg_44" y2="330.5" x2="90.5" y1="180.5" x1="191.5" stroke-width="1.5" stroke="#007fff" fill="none"/>
  <line stroke-linecap="null" stroke-linejoin="null" id="svg_45" y2="336.5" x2="96.5" y1="345.5" x1="293.5" stroke-width="1.5" stroke="#007fff" fill="none"/>
  <line stroke-linecap="null" stroke-linejoin="null" id="svg_46" y2="182.5" x2="197.5" y1="343.5" x1="294.5" stroke-width="1.5" stroke="#007fff" fill="none"/>
  <line fill="none" stroke="#000000" stroke-width="1.5" x1="498.5" y1="261.5" x2="533.514283" y2="261.5" id="svg_13" stroke-linejoin="null" stroke-linecap="null"/>
  <line fill="none" stroke-width="1.5" x1="498.5" y1="261.5" x2="533.514283" y2="261.5" id="svg_14" stroke-linejoin="null" stroke-linecap="null" stroke="#000000"/>
  <line fill="none" stroke="#000000" stroke-width="1.5" x1="478.5" y1="60.5" x2="513.514283" y2="60.5" id="svg_15" stroke-linejoin="null" stroke-linecap="null"/>
  <line fill="none" stroke="#000000" stroke-width="1.5" x1="379.5" y1="182.5" x2="414.514283" y2="182.5" id="svg_16" stroke-linejoin="null" stroke-linecap="null"/>
  <line fill="none" stroke="#000000" stroke-width="1.5" x1="242.5" y1="29.5" x2="277.514283" y2="29.5" id="svg_5" stroke-linejoin="null" stroke-linecap="null"/>
  <line fill="none" stroke="#000000" stroke-width="1.5" x1="379.5" y1="182.5" x2="414.514283" y2="182.5" id="svg_9" stroke-linejoin="null" stroke-linecap="null"/>
  <line fill="none" stroke="#000000" stroke-width="1.5" x1="202.5" y1="166.5" x2="237.514283" y2="166.5" id="svg_10" stroke-linejoin="null" stroke-linecap="null"/>
  <line fill="none" stroke="#ff00ff" stroke-width="1.5" x1="242.5" y1="36.5" x2="277.514283" y2="36.5" id="svg_11" stroke-linejoin="null" stroke-linecap="null"/>
  <line fill="none" stroke="#ff00ff" stroke-width="1.5" x1="97.5" y1="322.5" x2="132.514283" y2="322.5" id="svg_12" stroke-linejoin="null" stroke-linecap="null"/>
  <line fill="none" stroke="#ff00ff" stroke-width="1.5" x1="76.5" y1="97.5" x2="111.514283" y2="97.5" id="svg_3" stroke-linejoin="null" stroke-linecap="null"/>
 </g>
</svg>