<?xml version="1.0" encoding="UTF-8"?><svg xmlns="http://www.w3.org/2000/svg" width="600" height="378" version="1.0" shape-rendering="geometricPrecision"><defs><style type="text/css">@font-face {
  font-family: sans-serif;
}</style><filter id="shadowBlur" x="0" y="0" width="200%" height="200%"><feOffset in="SourceGraphic" dx="3.0003002" dy="3.0003002" result="offOut"></feOffset><feGaussianBlur in="offOut" stdDeviation="3"></feGaussianBlur></filter></defs><g stroke-width="1" stroke-linecap="square" stroke-linejoin="round"><rect x="0" y="0" width="600" height="378" style="fill: #ffffff"></rect><path stroke="#969696" fill="#969696" filter="url(#shadowBlur)" d="M575.0 175.0 L575.0 35.0 L345.0 35.0 L345.0 175.0 z"></path><path stroke="#969696" fill="#969696" filter="url(#shadowBlur)" d="M575.0 203.0 L575.0 343.0 L345.0 343.0 L345.0 203.0 z"></path><path stroke="#969696" fill="#969696" filter="url(#shadowBlur)" d="M65.0 119.0 L65.0 259.0 L295.0 259.0 L295.0 119.0 z"></path><path stroke="#969696" fill="#969696" filter="url(#shadowBlur)" d="M115.0 175.0 L115.0 147.0 L245.0 147.0 L245.0 175.0 z"></path><path stroke="#969696" fill="#969696" filter="url(#shadowBlur)" d="M525.0 63.0 L525.0 91.0 L395.0 91.0 L395.0 63.0 z"></path><path stroke="#969696" fill="#969696" filter="url(#shadowBlur)" d="M525.0 231.0 L525.0 259.0 L395.0 259.0 L395.0 231.0 z"></path><path stroke="#969696" fill="#969696" filter="url(#shadowBlur)" d="M505.0 287.0 L505.0 315.0 L415.0 315.0 L415.0 287.0 z"></path><path stroke="#969696" fill="#969696" filter="url(#shadowBlur)" d="M135.0 203.0 L135.0 231.0 L225.0 231.0 L225.0 203.0 z"></path><path stroke="#969696" fill="#969696" filter="url(#shadowBlur)" d="M415.0 147.0 L505.0 147.0 L505.0 119.0 L415.0 119.0 z"></path><path stroke="#000000" stroke-width="1.0" stroke-linecap="round" stroke-linejoin="round" fill="#00ff00" d="M575.0 175.0 L575.0 35.0 L345.0 35.0 L345.0 175.0 z"></path><path stroke="#000000" stroke-width="1.0" stroke-linecap="round" stroke-linejoin="round" fill="#ff0000" d="M575.0 203.0 L575.0 343.0 L345.0 343.0 L345.0 203.0 z"></path><path stroke="#000000" stroke-width="1.0" stroke-linecap="round" stroke-linejoin="round" fill="#0077ff" d="M65.0 119.0 L65.0 259.0 L295.0 259.0 L295.0 119.0 z"></path><path stroke="#000000" stroke-width="1.0" stroke-linecap="round" stroke-linejoin="round" fill="white" d="M115.0 175.0 L115.0 147.0 L245.0 147.0 L245.0 175.0 z"></path><path stroke="#000000" stroke-width="1.0" stroke-linecap="round" stroke-linejoin="round" fill="white" d="M525.0 63.0 L525.0 91.0 L395.0 91.0 L395.0 63.0 z"></path><path stroke="#000000" stroke-width="1.0" stroke-linecap="round" stroke-linejoin="round" fill="white" d="M525.0 231.0 L525.0 259.0 L395.0 259.0 L395.0 231.0 z"></path><path stroke="#000000" stroke-width="1.0" stroke-linecap="round" stroke-linejoin="round" fill="white" d="M505.0 287.0 L505.0 315.0 L415.0 315.0 L415.0 287.0 z"></path><path stroke="#000000" stroke-width="1.0" stroke-linecap="round" stroke-linejoin="round" fill="white" d="M135.0 203.0 L135.0 231.0 L225.0 231.0 L225.0 203.0 z"></path><path stroke="#000000" stroke-width="1.0" stroke-linecap="round" stroke-linejoin="round" fill="white" d="M415.0 147.0 L505.0 147.0 L505.0 119.0 L415.0 119.0 z"></path><path stroke="none" stroke-width="1.0" stroke-linecap="round" stroke-linejoin="round" fill="#000000" d="M40.0 182.0 L30.0 189.0 L40.0 196.0 z"></path><path stroke="none" stroke-width="1.0" stroke-linecap="round" stroke-linejoin="round" fill="#000000" d="M310.0 182.0 L300.0 189.0 L310.0 196.0 z"></path><path stroke="#000000" stroke-width="1.0" stroke-linecap="round" stroke-linejoin="round" fill="none" d="M55.0 189.0 L35.0 189.0 "></path><path stroke="#000000" stroke-width="1.0" stroke-dasharray="5.000000,5.000000" stroke-miterlimit="0" stroke-linecap="butt" stroke-linejoin="round" fill="white" d="M325.0 189.0 L305.0 189.0 "></path><text x="421" y="250" font-family="sans-serif" font-size="15" stroke="none" fill="#000000"><![CDATA[time stamp']]></text><text x="441" y="222" font-family="sans-serif" font-size="13" stroke="none" fill="#000000"><![CDATA[N+1]]></text><text x="446" y="306" font-family="sans-serif" font-size="15" stroke="none" fill="#000000"><![CDATA[data']]></text><text x="418" y="82" font-family="sans-serif" font-size="15" stroke="none" fill="#000000"><![CDATA[time stamp]]></text><text x="441" y="54" font-family="sans-serif" font-size="13" stroke="none" fill="#000000"><![CDATA[N+1]]></text><text x="138" y="166" font-family="sans-serif" font-size="15" stroke="none" fill="#000000"><![CDATA[time stamp]]></text><text x="443" y="138" font-family="sans-serif" font-size="15" stroke="none" fill="#000000"><![CDATA[data]]></text><text x="163" y="222" font-family="sans-serif" font-size="15" stroke="none" fill="#000000"><![CDATA[data]]></text></g></svg>