<?xml version="1.0" encoding="UTF-8"?><svg xmlns="http://www.w3.org/2000/svg" width="890" height="210" version="1.0" shape-rendering="geometricPrecision"><defs><style type="text/css">@font-face {
  font-family: sans-serif;
}</style><filter id="shadowBlur" x="0" y="0" width="200%" height="200%"><feOffset in="SourceGraphic" dx="3.0003002" dy="3.0003002" result="offOut"></feOffset><feGaussianBlur in="offOut" stdDeviation="3"></feGaussianBlur></filter></defs><g stroke-width="1" stroke-linecap="square" stroke-linejoin="round"><rect x="0" y="0" width="890" height="210" style="fill: #ffffff"></rect><path stroke="#969696" fill="#969696" filter="url(#shadowBlur)" d="M605.0 35.0 L605.0 175.0 L835.0 175.0 L835.0 35.0 z"></path><path stroke="#969696" fill="#969696" filter="url(#shadowBlur)" d="M335.0 35.0 L565.0 35.0 L565.0 175.0 L335.0 175.0 z"></path><path stroke="#969696" fill="#969696" filter="url(#shadowBlur)" d="M65.0 175.0 L65.0 35.0 L295.0 35.0 L295.0 175.0 z"></path><path stroke="#969696" fill="#969696" filter="url(#shadowBlur)" d="M625.0 49.0 L625.0 77.0 L715.0 77.0 L715.0 49.0 z"></path><path stroke="#969696" fill="#969696" filter="url(#shadowBlur)" d="M355.0 49.0 L355.0 77.0 L445.0 77.0 L445.0 49.0 z"></path><path stroke="#969696" fill="#969696" filter="url(#shadowBlur)" d="M175.0 49.0 L175.0 77.0 L85.0 77.0 L85.0 49.0 z"></path><path stroke="#000000" stroke-width="1.0" stroke-linecap="round" stroke-linejoin="round" fill="white" d="M605.0 35.0 L605.0 175.0 L835.0 175.0 L835.0 35.0 z"></path><path stroke="#000000" stroke-width="1.0" stroke-linecap="round" stroke-linejoin="round" fill="white" d="M335.0 35.0 L565.0 35.0 L565.0 175.0 L335.0 175.0 z"></path><path stroke="#000000" stroke-width="1.0" stroke-linecap="round" stroke-linejoin="round" fill="white" d="M65.0 175.0 L65.0 35.0 L295.0 35.0 L295.0 175.0 z"></path><path stroke="#000000" stroke-width="1.0" stroke-linecap="round" stroke-linejoin="round" fill="white" d="M625.0 49.0 L625.0 77.0 L715.0 77.0 L715.0 49.0 z"></path><path stroke="#000000" stroke-width="1.0" stroke-linecap="round" stroke-linejoin="round" fill="white" d="M355.0 49.0 L355.0 77.0 L445.0 77.0 L445.0 49.0 z"></path><path stroke="#000000" stroke-width="1.0" stroke-dasharray="5.000000,5.000000" stroke-miterlimit="0" stroke-linecap="butt" stroke-linejoin="round" fill="white" d="M405.0 119.0 L405.0 147.0 L495.0 147.0 L495.0 119.0 z"></path><path stroke="#000000" stroke-width="1.0" stroke-linecap="round" stroke-linejoin="round" fill="white" d="M175.0 49.0 L175.0 77.0 L85.0 77.0 L85.0 49.0 z"></path><path stroke="none" stroke-width="1.0" stroke-linecap="round" stroke-linejoin="round" fill="#000000" d="M40.0 98.0 L30.0 105.0 L40.0 112.0 z"></path><path stroke="none" stroke-width="1.0" stroke-linecap="round" stroke-linejoin="round" fill="#000000" d="M310.0 98.0 L300.0 105.0 L310.0 112.0 z"></path><path stroke="none" stroke-width="1.0" stroke-linecap="round" stroke-linejoin="round" fill="#000000" d="M580.0 98.0 L570.0 105.0 L580.0 112.0 z"></path><path stroke="none" stroke-width="1.0" stroke-linecap="round" stroke-linejoin="round" fill="#000000" d="M850.0 98.0 L840.0 105.0 L850.0 112.0 z"></path><path stroke="#000000" stroke-width="1.0" stroke-dasharray="5.000000,5.000000" stroke-miterlimit="0" stroke-linecap="butt" stroke-linejoin="round" fill="white" d="M55.0 105.0 L35.0 105.0 "></path><path stroke="#000000" stroke-width="1.0" stroke-linecap="round" stroke-linejoin="round" fill="none" d="M325.0 105.0 L305.0 105.0 "></path><path stroke="#000000" stroke-width="1.0" stroke-linecap="round" stroke-linejoin="round" fill="none" d="M595.0 105.0 L575.0 105.0 "></path><path stroke="#000000" stroke-width="1.0" stroke-dasharray="5.000000,5.000000" stroke-miterlimit="0" stroke-linecap="butt" stroke-linejoin="round" fill="white" d="M865.0 105.0 L845.0 105.0 "></path><text x="634" y="68" font-family="sans-serif" font-size="15" stroke="none" fill="#000000"><![CDATA[prevHash]]></text><text x="94" y="68" font-family="sans-serif" font-size="15" stroke="none" fill="#000000"><![CDATA[prevHash]]></text><text x="364" y="68" font-family="sans-serif" font-size="15" stroke="none" fill="#000000"><![CDATA[prevHash]]></text><text x="433" y="138" font-family="sans-serif" font-size="15" stroke="none" fill="#000000"><![CDATA[data]]></text></g></svg>