<?xml version="1.0" encoding="UTF-8"?><svg xmlns="http://www.w3.org/2000/svg" width="690" height="168" version="1.0" shape-rendering="geometricPrecision"><defs><style type="text/css">@font-face {
  font-family: sans-serif;
}</style><filter id="shadowBlur" x="0" y="0" width="200%" height="200%"><feOffset in="SourceGraphic" dx="3.0003002" dy="3.0003002" result="offOut"></feOffset><feGaussianBlur in="offOut" stdDeviation="3"></feGaussianBlur></filter></defs><g stroke-width="1" stroke-linecap="square" stroke-linejoin="round"><rect x="0" y="0" width="690" height="168" style="fill: #ffffff"></rect><path stroke="#969696" fill="#969696" filter="url(#shadowBlur)" d="M585.0 49.0 L585.0 133.0 L425.0 133.0 L425.0 49.0 z"></path><path stroke="#969696" fill="#969696" filter="url(#shadowBlur)" d="M225.0 49.0 L225.0 133.0 L385.0 133.0 L385.0 49.0 z"></path><path stroke="#969696" fill="#969696" filter="url(#shadowBlur)" d="M25.0 49.0 L185.0 49.0 L185.0 133.0 L25.0 133.0 z"></path><path stroke="#969696" fill="#969696" filter="url(#shadowBlur)" d="M515.0 63.0 L515.0 119.0 L435.0 119.0 L435.0 63.0 z"></path><path stroke="#969696" fill="#969696" filter="url(#shadowBlur)" d="M315.0 63.0 L315.0 119.0 L235.0 119.0 L235.0 63.0 z"></path><path stroke="#969696" fill="#969696" filter="url(#shadowBlur)" d="M35.0 63.0 L35.0 119.0 L115.0 119.0 L115.0 63.0 z"></path><path stroke="#969696" fill="#969696" filter="url(#shadowBlur)" d="M575.0 63.0 L575.0 119.0 L535.0 119.0 L535.0 63.0 z"></path><path stroke="#969696" fill="#969696" filter="url(#shadowBlur)" d="M335.0 63.0 L335.0 119.0 L375.0 119.0 L375.0 63.0 z"></path><path stroke="#969696" fill="#969696" filter="url(#shadowBlur)" d="M175.0 63.0 L175.0 119.0 L135.0 119.0 L135.0 63.0 z"></path><path stroke="#000000" stroke-width="1.0" stroke-linecap="round" stroke-linejoin="round" fill="white" d="M585.0 49.0 L585.0 133.0 L425.0 133.0 L425.0 49.0 z"></path><path stroke="#000000" stroke-width="1.0" stroke-linecap="round" stroke-linejoin="round" fill="white" d="M225.0 49.0 L225.0 133.0 L385.0 133.0 L385.0 49.0 z"></path><path stroke="#000000" stroke-width="1.0" stroke-linecap="round" stroke-linejoin="round" fill="white" d="M25.0 49.0 L185.0 49.0 L185.0 133.0 L25.0 133.0 z"></path><path stroke="#000000" stroke-width="1.0" stroke-linecap="round" stroke-linejoin="round" fill="white" d="M515.0 63.0 L515.0 119.0 L435.0 119.0 L435.0 63.0 z"></path><path stroke="#000000" stroke-width="1.0" stroke-linecap="round" stroke-linejoin="round" fill="white" d="M315.0 63.0 L315.0 119.0 L235.0 119.0 L235.0 63.0 z"></path><path stroke="#000000" stroke-width="1.0" stroke-linecap="round" stroke-linejoin="round" fill="white" d="M35.0 63.0 L35.0 119.0 L115.0 119.0 L115.0 63.0 z"></path><path stroke="#000000" stroke-width="1.0" stroke-linecap="round" stroke-linejoin="round" fill="white" d="M575.0 63.0 L575.0 119.0 L535.0 119.0 L535.0 63.0 z"></path><path stroke="#000000" stroke-width="1.0" stroke-linecap="round" stroke-linejoin="round" fill="white" d="M335.0 63.0 L335.0 119.0 L375.0 119.0 L375.0 63.0 z"></path><path stroke="#000000" stroke-width="1.0" stroke-linecap="round" stroke-linejoin="round" fill="white" d="M175.0 63.0 L175.0 119.0 L135.0 119.0 L135.0 63.0 z"></path><path stroke="none" stroke-width="1.0" stroke-linecap="round" stroke-linejoin="round" fill="#000000" d="M210.0 84.0 L220.0 91.0 L210.0 98.0 z"></path><path stroke="none" stroke-width="1.0" stroke-linecap="round" stroke-linejoin="round" fill="#000000" d="M410.0 84.0 L420.0 91.0 L410.0 98.0 z"></path><path stroke="none" stroke-width="1.0" stroke-linecap="round" stroke-linejoin="round" fill="#000000" d="M610.0 84.0 L620.0 91.0 L610.0 98.0 z"></path><path stroke="#000000" stroke-width="1.0" stroke-linecap="round" stroke-linejoin="round" fill="none" d="M615.0 91.0 L595.0 91.0 "></path><path stroke="#000000" stroke-width="1.0" stroke-linecap="round" stroke-linejoin="round" fill="none" d="M415.0 91.0 L395.0 91.0 "></path><path stroke="#000000" stroke-width="1.0" stroke-linecap="round" stroke-linejoin="round" fill="none" d="M215.0 91.0 L195.0 91.0 "></path><text x="344" y="96" font-family="sans-serif" font-size="15" stroke="none" fill="#000000"><![CDATA[ptr]]></text><text x="631" y="96" font-family="sans-serif" font-size="15" stroke="none" fill="#000000"><![CDATA[NULL]]></text><text x="273" y="96" font-family="sans-serif" font-size="15" stroke="none" fill="#000000"><![CDATA[B ]]></text><text x="544" y="96" font-family="sans-serif" font-size="15" stroke="none" fill="#000000"><![CDATA[ptr]]></text><text x="144" y="96" font-family="sans-serif" font-size="15" stroke="none" fill="#000000"><![CDATA[ptr]]></text><text x="473" y="96" font-family="sans-serif" font-size="15" stroke="none" fill="#000000"><![CDATA[C ]]></text><text x="72" y="96" font-family="sans-serif" font-size="15" stroke="none" fill="#000000"><![CDATA[A ]]></text></g></svg>