<?xml version="1.0" encoding="UTF-8"?><svg xmlns="http://www.w3.org/2000/svg" width="430" height="280" version="1.0" shape-rendering="geometricPrecision"><defs><style type="text/css">@font-face {
  font-family: sans-serif;
}</style><filter id="shadowBlur" x="0" y="0" width="200%" height="200%"><feOffset in="SourceGraphic" dx="3.0003002" dy="3.0003002" result="offOut"></feOffset><feGaussianBlur in="offOut" stdDeviation="3"></feGaussianBlur></filter></defs><g stroke-width="1" stroke-linecap="square" stroke-linejoin="round"><rect x="0" y="0" width="430" height="280" style="fill: #ffffff"></rect><path stroke="#969696" fill="#969696" filter="url(#shadowBlur)" d="M390.0 119.0 Q395.0 119.0 395.0 126.0 L395.0 168.0 Q395.0 175.0 390.0 175.0 L270.0 175.0 L270.0 175.0 Q265.0 175.0 265.0 168.0 L265.0 126.0 L265.0 126.0 Q265.0 119.0 270.0 119.0 L390.0 119.0 z"></path><path stroke="#969696" fill="#969696" filter="url(#shadowBlur)" d="M280.0 35.0 Q285.0 35.0 285.0 42.0 L285.0 84.0 Q285.0 91.0 280.0 91.0 L160.0 91.0 L160.0 91.0 Q155.0 91.0 155.0 84.0 L155.0 42.0 L155.0 42.0 Q155.0 35.0 160.0 35.0 L280.0 35.0 z"></path><path stroke="#969696" fill="#969696" filter="url(#shadowBlur)" d="M40.0 119.0 Q35.0 119.0 35.0 126.0 L35.0 168.0 Q35.0 175.0 40.0 175.0 L160.0 175.0 L160.0 175.0 Q165.0 175.0 165.0 168.0 L165.0 126.0 L165.0 126.0 Q165.0 119.0 160.0 119.0 L40.0 119.0 z"></path><path stroke="#969696" fill="#969696" filter="url(#shadowBlur)" d="M130.0 217.0 Q125.0 217.0 125.0 224.0 L125.0 238.0 Q125.0 245.0 130.0 245.0 L170.0 245.0 L170.0 245.0 Q175.0 245.0 175.0 238.0 L175.0 224.0 L175.0 224.0 Q175.0 217.0 170.0 217.0 L130.0 217.0 z"></path><path stroke="#969696" fill="#969696" filter="url(#shadowBlur)" d="M400.0 217.0 Q405.0 217.0 405.0 224.0 L405.0 238.0 Q405.0 245.0 400.0 245.0 L360.0 245.0 L360.0 245.0 Q355.0 245.0 355.0 238.0 L355.0 224.0 L355.0 224.0 Q355.0 217.0 360.0 217.0 L400.0 217.0 z"></path><path stroke="#969696" fill="#969696" filter="url(#shadowBlur)" d="M70.0 217.0 Q75.0 217.0 75.0 224.0 L75.0 238.0 Q75.0 245.0 70.0 245.0 L30.0 245.0 L30.0 245.0 Q25.0 245.0 25.0 238.0 L25.0 224.0 L25.0 224.0 Q25.0 217.0 30.0 217.0 L70.0 217.0 z"></path><path stroke="#969696" fill="#969696" filter="url(#shadowBlur)" d="M300.0 217.0 Q305.0 217.0 305.0 224.0 L305.0 238.0 Q305.0 245.0 300.0 245.0 L260.0 245.0 L260.0 245.0 Q255.0 245.0 255.0 238.0 L255.0 224.0 L255.0 224.0 Q255.0 217.0 260.0 217.0 L300.0 217.0 z"></path><path stroke="#000000" stroke-width="1.0" stroke-linecap="round" stroke-linejoin="round" fill="white" d="M390.0 119.0 Q395.0 119.0 395.0 126.0 L395.0 168.0 Q395.0 175.0 390.0 175.0 L270.0 175.0 L270.0 175.0 Q265.0 175.0 265.0 168.0 L265.0 126.0 L265.0 126.0 Q265.0 119.0 270.0 119.0 L390.0 119.0 z"></path><path stroke="#000000" stroke-width="1.0" stroke-linecap="round" stroke-linejoin="round" fill="white" d="M280.0 35.0 Q285.0 35.0 285.0 42.0 L285.0 84.0 Q285.0 91.0 280.0 91.0 L160.0 91.0 L160.0 91.0 Q155.0 91.0 155.0 84.0 L155.0 42.0 L155.0 42.0 Q155.0 35.0 160.0 35.0 L280.0 35.0 z"></path><path stroke="#000000" stroke-width="1.0" stroke-linecap="round" stroke-linejoin="round" fill="white" d="M40.0 119.0 Q35.0 119.0 35.0 126.0 L35.0 168.0 Q35.0 175.0 40.0 175.0 L160.0 175.0 L160.0 175.0 Q165.0 175.0 165.0 168.0 L165.0 126.0 L165.0 126.0 Q165.0 119.0 160.0 119.0 L40.0 119.0 z"></path><path stroke="#000000" stroke-width="1.0" stroke-linecap="round" stroke-linejoin="round" fill="white" d="M130.0 217.0 Q125.0 217.0 125.0 224.0 L125.0 238.0 Q125.0 245.0 130.0 245.0 L170.0 245.0 L170.0 245.0 Q175.0 245.0 175.0 238.0 L175.0 224.0 L175.0 224.0 Q175.0 217.0 170.0 217.0 L130.0 217.0 z"></path><path stroke="#000000" stroke-width="1.0" stroke-linecap="round" stroke-linejoin="round" fill="white" d="M400.0 217.0 Q405.0 217.0 405.0 224.0 L405.0 238.0 Q405.0 245.0 400.0 245.0 L360.0 245.0 L360.0 245.0 Q355.0 245.0 355.0 238.0 L355.0 224.0 L355.0 224.0 Q355.0 217.0 360.0 217.0 L400.0 217.0 z"></path><path stroke="#000000" stroke-width="1.0" stroke-linecap="round" stroke-linejoin="round" fill="white" d="M70.0 217.0 Q75.0 217.0 75.0 224.0 L75.0 238.0 Q75.0 245.0 70.0 245.0 L30.0 245.0 L30.0 245.0 Q25.0 245.0 25.0 238.0 L25.0 224.0 L25.0 224.0 Q25.0 217.0 30.0 217.0 L70.0 217.0 z"></path><path stroke="#000000" stroke-width="1.0" stroke-linecap="round" stroke-linejoin="round" fill="white" d="M300.0 217.0 Q305.0 217.0 305.0 224.0 L305.0 238.0 Q305.0 245.0 300.0 245.0 L260.0 245.0 L260.0 245.0 Q255.0 245.0 255.0 238.0 L255.0 224.0 L255.0 224.0 Q255.0 217.0 260.0 217.0 L300.0 217.0 z"></path><path stroke="#000000" stroke-width="1.0" stroke-linecap="round" stroke-linejoin="round" fill="none" d="M145.0 63.0 L120.0 63.0 Q115.0 63.0 115.0 70.0 L115.0 105.0 L115.0 105.0 "></path><path stroke="#000000" stroke-width="1.0" stroke-linecap="round" stroke-linejoin="round" fill="none" d="M325.0 105.0 L325.0 70.0 Q325.0 63.0 320.0 63.0 L295.0 63.0 L295.0 63.0 "></path><path stroke="none" stroke-width="1.0" stroke-linecap="round" stroke-linejoin="round" fill="#000000" d="M110.0 98.0 L115.0 112.0 L120.0 98.0 z"></path><path stroke="none" stroke-width="1.0" stroke-linecap="round" stroke-linejoin="round" fill="#000000" d="M320.0 98.0 L325.0 112.0 L330.0 98.0 z"></path><path stroke="none" stroke-width="1.0" stroke-linecap="round" stroke-linejoin="round" fill="#000000" d="M50.0 196.0 L55.0 210.0 L60.0 196.0 z"></path><path stroke="none" stroke-width="1.0" stroke-linecap="round" stroke-linejoin="round" fill="#000000" d="M140.0 196.0 L145.0 210.0 L150.0 196.0 z"></path><path stroke="none" stroke-width="1.0" stroke-linecap="round" stroke-linejoin="round" fill="#000000" d="M280.0 196.0 L285.0 210.0 L290.0 196.0 z"></path><path stroke="none" stroke-width="1.0" stroke-linecap="round" stroke-linejoin="round" fill="#000000" d="M370.0 196.0 L375.0 210.0 L380.0 196.0 z"></path><path stroke="#000000" stroke-width="1.0" stroke-linecap="round" stroke-linejoin="round" fill="none" d="M145.0 182.0 L145.0 203.0 "></path><path stroke="#000000" stroke-width="1.0" stroke-linecap="round" stroke-linejoin="round" fill="none" d="M375.0 182.0 L375.0 203.0 "></path><path stroke="#000000" stroke-width="1.0" stroke-linecap="round" stroke-linejoin="round" fill="none" d="M55.0 182.0 L55.0 203.0 "></path><path stroke="#000000" stroke-width="1.0" stroke-linecap="round" stroke-linejoin="round" fill="none" d="M285.0 182.0 L285.0 203.0 "></path><text x="55" y="152" font-family="sans-serif" font-size="15" stroke="none" fill="#000000"><![CDATA[h(1)]]></text><text x="140" y="236" font-family="sans-serif" font-size="15" stroke="none" fill="#000000"><![CDATA[d2]]></text><text x="345" y="152" font-family="sans-serif" font-size="15" stroke="none" fill="#000000"><![CDATA[h(4)]]></text><text x="235" y="68" font-family="sans-serif" font-size="15" stroke="none" fill="#000000"><![CDATA[h(34)]]></text><text x="285" y="152" font-family="sans-serif" font-size="15" stroke="none" fill="#000000"><![CDATA[h(3)]]></text><text x="370" y="236" font-family="sans-serif" font-size="15" stroke="none" fill="#000000"><![CDATA[d4]]></text><text x="40" y="236" font-family="sans-serif" font-size="15" stroke="none" fill="#000000"><![CDATA[d1]]></text><text x="165" y="68" font-family="sans-serif" font-size="15" stroke="none" fill="#000000"><![CDATA[h(12)]]></text><text x="270" y="236" font-family="sans-serif" font-size="15" stroke="none" fill="#000000"><![CDATA[d3]]></text><text x="115" y="152" font-family="sans-serif" font-size="15" stroke="none" fill="#000000"><![CDATA[h(2)]]></text></g></svg>