<?xml version="1.0" encoding="UTF-8"?><svg xmlns="http://www.w3.org/2000/svg" width="690" height="168" version="1.0" shape-rendering="geometricPrecision"><defs><style type="text/css">@font-face {
  font-family: sans-serif;
}</style><filter id="shadowBlur" x="0" y="0" width="200%" height="200%"><feOffset in="SourceGraphic" dx="3.0003002" dy="3.0003002" result="offOut"></feOffset><feGaussianBlur in="offOut" stdDeviation="3"></feGaussianBlur></filter></defs><g stroke-width="1" stroke-linecap="square" stroke-linejoin="round"><rect x="0" y="0" width="690" height="168" style="fill: #ffffff"></rect><path stroke="#969696" fill="#969696" filter="url(#shadowBlur)" d="M665.0 49.0 L665.0 133.0 L505.0 133.0 L505.0 49.0 z"></path><path stroke="#969696" fill="#969696" filter="url(#shadowBlur)" d="M305.0 49.0 L305.0 133.0 L465.0 133.0 L465.0 49.0 z"></path><path stroke="#969696" fill="#969696" filter="url(#shadowBlur)" d="M265.0 49.0 L265.0 133.0 L105.0 133.0 L105.0 49.0 z"></path><path stroke="#969696" fill="#969696" filter="url(#shadowBlur)" d="M375.0 119.0 L455.0 119.0 L455.0 63.0 L375.0 63.0 z"></path><path stroke="#969696" fill="#969696" filter="url(#shadowBlur)" d="M255.0 63.0 L255.0 119.0 L175.0 119.0 L175.0 63.0 z"></path><path stroke="#969696" fill="#969696" filter="url(#shadowBlur)" d="M655.0 63.0 L655.0 119.0 L575.0 119.0 L575.0 63.0 z"></path><path stroke="#969696" fill="#969696" filter="url(#shadowBlur)" d="M555.0 63.0 L555.0 119.0 L515.0 119.0 L515.0 63.0 z"></path><path stroke="#969696" fill="#969696" filter="url(#shadowBlur)" d="M355.0 63.0 L355.0 119.0 L315.0 119.0 L315.0 63.0 z"></path><path stroke="#969696" fill="#969696" filter="url(#shadowBlur)" d="M155.0 63.0 L155.0 119.0 L115.0 119.0 L115.0 63.0 z"></path><path stroke="#000000" stroke-width="1.0" stroke-linecap="round" stroke-linejoin="round" fill="white" d="M665.0 49.0 L665.0 133.0 L505.0 133.0 L505.0 49.0 z"></path><path stroke="#000000" stroke-width="1.0" stroke-linecap="round" stroke-linejoin="round" fill="white" d="M305.0 49.0 L305.0 133.0 L465.0 133.0 L465.0 49.0 z"></path><path stroke="#000000" stroke-width="1.0" stroke-linecap="round" stroke-linejoin="round" fill="white" d="M265.0 49.0 L265.0 133.0 L105.0 133.0 L105.0 49.0 z"></path><path stroke="#000000" stroke-width="1.0" stroke-linecap="round" stroke-linejoin="round" fill="white" d="M375.0 119.0 L455.0 119.0 L455.0 63.0 L375.0 63.0 z"></path><path stroke="#000000" stroke-width="1.0" stroke-linecap="round" stroke-linejoin="round" fill="white" d="M255.0 63.0 L255.0 119.0 L175.0 119.0 L175.0 63.0 z"></path><path stroke="#000000" stroke-width="1.0" stroke-linecap="round" stroke-linejoin="round" fill="white" d="M655.0 63.0 L655.0 119.0 L575.0 119.0 L575.0 63.0 z"></path><path stroke="#000000" stroke-width="1.0" stroke-linecap="round" stroke-linejoin="round" fill="white" d="M555.0 63.0 L555.0 119.0 L515.0 119.0 L515.0 63.0 z"></path><path stroke="#000000" stroke-width="1.0" stroke-linecap="round" stroke-linejoin="round" fill="white" d="M355.0 63.0 L355.0 119.0 L315.0 119.0 L315.0 63.0 z"></path><path stroke="#000000" stroke-width="1.0" stroke-linecap="round" stroke-linejoin="round" fill="white" d="M155.0 63.0 L155.0 119.0 L115.0 119.0 L115.0 63.0 z"></path><path stroke="none" stroke-width="1.0" stroke-linecap="round" stroke-linejoin="round" fill="#000000" d="M80.0 84.0 L70.0 91.0 L80.0 98.0 z"></path><path stroke="none" stroke-width="1.0" stroke-linecap="round" stroke-linejoin="round" fill="#000000" d="M280.0 84.0 L270.0 91.0 L280.0 98.0 z"></path><path stroke="none" stroke-width="1.0" stroke-linecap="round" stroke-linejoin="round" fill="#000000" d="M480.0 84.0 L470.0 91.0 L480.0 98.0 z"></path><path stroke="#000000" stroke-width="1.0" stroke-linecap="round" stroke-linejoin="round" fill="none" d="M495.0 91.0 L475.0 91.0 "></path><path stroke="#000000" stroke-width="1.0" stroke-linecap="round" stroke-linejoin="round" fill="none" d="M295.0 91.0 L275.0 91.0 "></path><path stroke="#000000" stroke-width="1.0" stroke-linecap="round" stroke-linejoin="round" fill="none" d="M95.0 91.0 L75.0 91.0 "></path><text x="21" y="96" font-family="sans-serif" font-size="15" stroke="none" fill="#000000"><![CDATA[NULL]]></text><text x="324" y="96" font-family="sans-serif" font-size="15" stroke="none" fill="#000000"><![CDATA[ptr]]></text><text x="613" y="96" font-family="sans-serif" font-size="15" stroke="none" fill="#000000"><![CDATA[C ]]></text><text x="524" y="96" font-family="sans-serif" font-size="15" stroke="none" fill="#000000"><![CDATA[ptr]]></text><text x="212" y="96" font-family="sans-serif" font-size="15" stroke="none" fill="#000000"><![CDATA[A ]]></text><text x="124" y="96" font-family="sans-serif" font-size="15" stroke="none" fill="#000000"><![CDATA[ptr]]></text><text x="413" y="96" font-family="sans-serif" font-size="15" stroke="none" fill="#000000"><![CDATA[B ]]></text></g></svg>