<svg width="580" height="400" xmlns="http://www.w3.org/2000/svg">
 <!-- Created with Method Draw - http://github.com/duopixel/Method-Draw/ -->

 <g>
  <title>background</title>
  <rect x="-1" y="-1" width="582" height="402" id="canvas_background" fill="#fff"/>
  <g id="canvasGrid" display="none">
   <rect id="svg_2" width="100%" height="100%" x="0" y="0" stroke-width="0" fill="url(#gridpattern)"/>
  </g>
 </g>
 <g>
  <title>Layer 1</title>
  <ellipse fill="#007fff" stroke="#fff" stroke-width="1.5" cx="65" cy="103" id="svg_1" rx="27.5" ry="27.5"/>
  <ellipse fill="#007fff" stroke="#fff" stroke-width="1.5" cx="234" cy="38" id="svg_6" rx="27.5" ry="27.5"/>
  <ellipse fill="#007fff" stroke="#fff" stroke-width="1.5" cx="194" cy="178" id="svg_7" rx="27.5" ry="27.5"/>
  <ellipse fill="#007fff" stroke="#fff" stroke-width="1.5" cx="88" cy="329" id="svg_8" rx="27.5" ry="27.5"/>
  <ellipse fill="#007fff" stroke="#fff" stroke-width="1.5" cx="469" cy="64" id="svg_25" rx="27.5" ry="27.5"/>
  <ellipse fill="#007fff" stroke="#fff" stroke-width="1.5" cx="370" cy="188" id="svg_26" rx="27.5" ry="27.5"/>
  <ellipse fill="#007fff" stroke="#fff" stroke-width="1.5" cx="295" cy="346" id="svg_27" rx="27.5" ry="27.5"/>
  <ellipse fill="#007fff" stroke="#fff" stroke-width="1.5" cx="488" cy="266" id="svg_28" rx="27.5" ry="27.5"/>
  <line fill="none" stroke="#007fff" stroke-width="1.5" x1="78.5" y1="110.5" x2="195.5" y2="177.5" id="svg_30" stroke-linejoin="null" stroke-linecap="null"/>
  <line fill="none" stroke="#007fff" stroke-width="1.5" x1="231.5" y1="46.5" x2="195.5" y2="172.5" id="svg_31" stroke-linejoin="null" stroke-linecap="null"/>
  <line fill="none" stroke="#007fff" stroke-width="1.5" x1="62.5" y1="99.5" x2="235.5" y2="37.5" id="svg_32" stroke-linejoin="null" stroke-linecap="null"/>
  <line fill="none" stroke="#007fff" stroke-width="1.5" x1="251.5" y1="43.5" x2="468.5" y2="62.5" id="svg_33" stroke-linejoin="null" stroke-linecap="null"/>
  <line fill="none" stroke="#007fff" stroke-width="1.5" x1="239.5" y1="44.5" x2="368.5" y2="189.5" id="svg_34" stroke-linejoin="null" stroke-linecap="null"/>
  <line fill="none" stroke="#007fff" stroke-width="1.5" x1="466.5" y1="73.5" x2="372.5" y2="191.5" id="svg_35" stroke-linejoin="null" stroke-linecap="null"/>
  <line fill="none" stroke="#007fff" stroke-width="1.5" x1="373.5" y1="197.5" x2="289.5" y2="344.5" id="svg_36" stroke-linejoin="null" stroke-linecap="null"/>
  <line fill="none" stroke="#007fff" stroke-width="1.5" x1="194.5" y1="180.5" x2="361.5" y2="189.5" id="svg_37" stroke-linejoin="null" stroke-linecap="null"/>
  <line fill="none" stroke="#007fff" stroke-width="1.5" x1="471.5" y1="66.5" x2="488.5" y2="262.5" id="svg_38" stroke-linejoin="null" stroke-linecap="null"/>
  <line fill="none" stroke="#007fff" stroke-width="1.5" x1="371.5" y1="199.5" x2="485.5" y2="269.5" id="svg_39" stroke-linejoin="null" stroke-linecap="null"/>
  <line fill="none" stroke="#007fff" stroke-width="1.5" x1="296.5" y1="349.5" x2="481.5" y2="270.5" id="svg_40" stroke-linejoin="null" stroke-linecap="null"/>
  <line fill="none" stroke="#007fff" stroke-width="1.5" x1="66.5" y1="107.5" x2="85.5" y2="324.5" id="svg_43" stroke-linejoin="null" stroke-linecap="null"/>
  <line fill="none" stroke="#007fff" stroke-width="1.5" x1="191.5" y1="180.5" x2="90.5" y2="330.5" id="svg_44" stroke-linejoin="null" stroke-linecap="null"/>
  <line fill="none" stroke="#007fff" stroke-width="1.5" x1="293.5" y1="345.5" x2="96.5" y2="336.5" id="svg_45" stroke-linejoin="null" stroke-linecap="null"/>
  <line fill="none" stroke="#007fff" stroke-width="1.5" x1="294.5" y1="343.5" x2="197.5" y2="182.5" id="svg_46" stroke-linejoin="null" stroke-linecap="null"/>
  <path stroke="#fff" transform="rotate(-136.5970916748047 527.77392578125,300.07904052734375) " id="svg_4" d="m525.802212,304.640052l6.877009,-2.817094l-13.296362,0l-13.296333,0l0,-1.743915l0,-1.743917l13.143797,0c7.229078,0 13.143787,-0.08839 13.143787,-0.196423c0,-0.10803 -2.877873,-1.375723 -6.395267,-2.817094l-6.395287,-2.620674l5.911199,0l5.911178,0l9.027707,3.692587l9.027703,3.692585l-9.04502,3.68552l-9.045017,3.68552l-6.223055,0l-6.22307,0l6.877028,-2.817096l0.000003,0.000001z" stroke-width="1.5" fill="#000"/>
 </g>
</svg>