<?xml version="1.0" encoding="UTF-8"?><svg xmlns="http://www.w3.org/2000/svg" width="400" height="392" version="1.0" shape-rendering="geometricPrecision"><defs><style type="text/css">@font-face {
  font-family: sans-serif;
}</style><filter id="shadowBlur" x="0" y="0" width="200%" height="200%"><feOffset in="SourceGraphic" dx="3.0003002" dy="3.0003002" result="offOut"></feOffset><feGaussianBlur in="offOut" stdDeviation="3"></feGaussianBlur></filter></defs><g stroke-width="1" stroke-linecap="square" stroke-linejoin="round"><rect x="0" y="0" width="400" height="392" style="fill: #ffffff"></rect><path stroke="#969696" fill="#969696" filter="url(#shadowBlur)" d="M125.0 175.0 L125.0 35.0 L355.0 35.0 L355.0 175.0 z"></path><path stroke="#969696" fill="#969696" filter="url(#shadowBlur)" d="M305.0 63.0 L305.0 91.0 L175.0 91.0 L175.0 63.0 z"></path><path stroke="#969696" fill="#969696" filter="url(#shadowBlur)" d="M285.0 119.0 L285.0 147.0 L195.0 147.0 L195.0 119.0 z"></path><path stroke="#969696" fill="#969696" filter="url(#shadowBlur)" d="M320.0 329.0 Q325.0 329.0 325.0 336.0 L325.0 350.0 Q325.0 357.0 320.0 357.0 L290.0 357.0 L290.0 357.0 Q285.0 357.0 285.0 350.0 L285.0 336.0 L285.0 336.0 Q285.0 329.0 290.0 329.0 L320.0 329.0 z"></path><path stroke="#969696" fill="#969696" filter="url(#shadowBlur)" d="M80.0 329.0 Q75.0 329.0 75.0 336.0 L75.0 350.0 Q75.0 357.0 80.0 357.0 L110.0 357.0 L110.0 357.0 Q115.0 357.0 115.0 350.0 L115.0 336.0 L115.0 336.0 Q115.0 329.0 110.0 329.0 L80.0 329.0 z"></path><path stroke="#969696" fill="#969696" filter="url(#shadowBlur)" d="M250.0 217.0 Q255.0 217.0 255.0 224.0 L255.0 238.0 Q255.0 245.0 250.0 245.0 L220.0 245.0 L220.0 245.0 Q215.0 245.0 215.0 238.0 L215.0 224.0 L215.0 224.0 Q215.0 217.0 220.0 217.0 L250.0 217.0 z"></path><path stroke="#969696" fill="#969696" filter="url(#shadowBlur)" d="M180.0 259.0 Q185.0 259.0 185.0 266.0 L185.0 280.0 Q185.0 287.0 180.0 287.0 L150.0 287.0 L150.0 287.0 Q145.0 287.0 145.0 280.0 L145.0 266.0 L145.0 266.0 Q145.0 259.0 150.0 259.0 L180.0 259.0 z"></path><path stroke="#969696" fill="#969696" filter="url(#shadowBlur)" d="M180.0 329.0 Q185.0 329.0 185.0 336.0 L185.0 350.0 Q185.0 357.0 180.0 357.0 L150.0 357.0 L150.0 357.0 Q145.0 357.0 145.0 350.0 L145.0 336.0 L145.0 336.0 Q145.0 329.0 150.0 329.0 L180.0 329.0 z"></path><path stroke="#969696" fill="#969696" filter="url(#shadowBlur)" d="M320.0 259.0 Q325.0 259.0 325.0 266.0 L325.0 280.0 Q325.0 287.0 320.0 287.0 L290.0 287.0 L290.0 287.0 Q285.0 287.0 285.0 280.0 L285.0 266.0 L285.0 266.0 Q285.0 259.0 290.0 259.0 L320.0 259.0 z"></path><path stroke="#000000" stroke-width="1.0" stroke-linecap="round" stroke-linejoin="round" fill="white" d="M125.0 175.0 L125.0 35.0 L355.0 35.0 L355.0 175.0 z"></path><path stroke="#000000" stroke-width="1.0" stroke-linecap="round" stroke-linejoin="round" fill="white" d="M305.0 63.0 L305.0 91.0 L175.0 91.0 L175.0 63.0 z"></path><path stroke="#000000" stroke-width="1.0" stroke-linecap="round" stroke-linejoin="round" fill="white" d="M285.0 119.0 L285.0 147.0 L195.0 147.0 L195.0 119.0 z"></path><path stroke="#000000" stroke-width="1.0" stroke-linecap="round" stroke-linejoin="round" fill="white" d="M320.0 329.0 Q325.0 329.0 325.0 336.0 L325.0 350.0 Q325.0 357.0 320.0 357.0 L290.0 357.0 L290.0 357.0 Q285.0 357.0 285.0 350.0 L285.0 336.0 L285.0 336.0 Q285.0 329.0 290.0 329.0 L320.0 329.0 z"></path><path stroke="#000000" stroke-width="1.0" stroke-linecap="round" stroke-linejoin="round" fill="white" d="M80.0 329.0 Q75.0 329.0 75.0 336.0 L75.0 350.0 Q75.0 357.0 80.0 357.0 L110.0 357.0 L110.0 357.0 Q115.0 357.0 115.0 350.0 L115.0 336.0 L115.0 336.0 Q115.0 329.0 110.0 329.0 L80.0 329.0 z"></path><path stroke="#000000" stroke-width="1.0" stroke-linecap="round" stroke-linejoin="round" fill="white" d="M250.0 217.0 Q255.0 217.0 255.0 224.0 L255.0 238.0 Q255.0 245.0 250.0 245.0 L220.0 245.0 L220.0 245.0 Q215.0 245.0 215.0 238.0 L215.0 224.0 L215.0 224.0 Q215.0 217.0 220.0 217.0 L250.0 217.0 z"></path><path stroke="#000000" stroke-width="1.0" stroke-linecap="round" stroke-linejoin="round" fill="white" d="M180.0 259.0 Q185.0 259.0 185.0 266.0 L185.0 280.0 Q185.0 287.0 180.0 287.0 L150.0 287.0 L150.0 287.0 Q145.0 287.0 145.0 280.0 L145.0 266.0 L145.0 266.0 Q145.0 259.0 150.0 259.0 L180.0 259.0 z"></path><path stroke="#000000" stroke-width="1.0" stroke-linecap="round" stroke-linejoin="round" fill="white" d="M180.0 329.0 Q185.0 329.0 185.0 336.0 L185.0 350.0 Q185.0 357.0 180.0 357.0 L150.0 357.0 L150.0 357.0 Q145.0 357.0 145.0 350.0 L145.0 336.0 L145.0 336.0 Q145.0 329.0 150.0 329.0 L180.0 329.0 z"></path><path stroke="#000000" stroke-width="1.0" stroke-linecap="round" stroke-linejoin="round" fill="white" d="M320.0 259.0 Q325.0 259.0 325.0 266.0 L325.0 280.0 Q325.0 287.0 320.0 287.0 L290.0 287.0 L290.0 287.0 Q285.0 287.0 285.0 280.0 L285.0 266.0 L285.0 266.0 Q285.0 259.0 290.0 259.0 L320.0 259.0 z"></path><path stroke="#000000" stroke-width="1.0" stroke-linecap="round" stroke-linejoin="round" fill="none" d="M135.0 273.0 L100.0 273.0 Q95.0 273.0 95.0 280.0 L95.0 315.0 L95.0 315.0 "></path><path stroke="#000000" stroke-width="1.0" stroke-dasharray="5.000000,5.000000" stroke-miterlimit="0" stroke-linecap="butt" stroke-linejoin="round" fill="white" d="M375.0 301.0 L375.0 280.0 Q375.0 273.0 370.0 273.0 L335.0 273.0 L335.0 273.0 "></path><path stroke="#000000" stroke-width="1.0" stroke-dasharray="5.000000,5.000000" stroke-miterlimit="0" stroke-linecap="butt" stroke-linejoin="round" fill="white" d="M235.0 357.0 L235.0 350.0 Q235.0 343.0 230.0 343.0 L195.0 343.0 L195.0 343.0 "></path><path stroke="#000000" stroke-width="1.0" stroke-dasharray="5.000000,5.000000" stroke-miterlimit="0" stroke-linecap="butt" stroke-linejoin="round" fill="white" d="M65.0 343.0 L30.0 343.0 Q25.0 343.0 25.0 350.0 L25.0 357.0 L25.0 357.0 "></path><path stroke="#000000" stroke-width="1.0" stroke-linecap="round" stroke-linejoin="round" fill="none" d="M305.0 245.0 L305.0 238.0 Q305.0 231.0 300.0 231.0 L265.0 231.0 L265.0 231.0 "></path><path stroke="#000000" stroke-width="1.0" stroke-linecap="round" stroke-linejoin="round" fill="none" d="M165.0 245.0 L165.0 238.0 Q165.0 231.0 170.0 231.0 L205.0 231.0 L205.0 231.0 "></path><path stroke="none" stroke-width="1.0" stroke-linecap="round" stroke-linejoin="round" fill="#000000" d="M90.0 98.0 L80.0 105.0 L90.0 112.0 z"></path><path stroke="none" stroke-width="1.0" stroke-linecap="round" stroke-linejoin="round" fill="#000000" d="M235.0 154.0 L230.0 168.0 L240.0 168.0 z"></path><path stroke="none" stroke-width="1.0" stroke-linecap="round" stroke-linejoin="round" fill="#000000" d="M200.0 224.0 L210.0 231.0 L200.0 238.0 z"></path><path stroke="none" stroke-width="1.0" stroke-linecap="round" stroke-linejoin="round" fill="#000000" d="M270.0 224.0 L260.0 231.0 L270.0 238.0 z"></path><path stroke="none" stroke-width="1.0" stroke-linecap="round" stroke-linejoin="round" fill="#000000" d="M130.0 266.0 L140.0 273.0 L130.0 280.0 z"></path><path stroke="none" stroke-width="1.0" stroke-linecap="round" stroke-linejoin="round" fill="#000000" d="M340.0 266.0 L330.0 273.0 L340.0 280.0 z"></path><path stroke="none" stroke-width="1.0" stroke-linecap="round" stroke-linejoin="round" fill="#000000" d="M165.0 294.0 L160.0 308.0 L170.0 308.0 z"></path><path stroke="none" stroke-width="1.0" stroke-linecap="round" stroke-linejoin="round" fill="#000000" d="M305.0 294.0 L300.0 308.0 L310.0 308.0 z"></path><path stroke="none" stroke-width="1.0" stroke-linecap="round" stroke-linejoin="round" fill="#000000" d="M60.0 336.0 L70.0 343.0 L60.0 350.0 z"></path><path stroke="none" stroke-width="1.0" stroke-linecap="round" stroke-linejoin="round" fill="#000000" d="M200.0 336.0 L190.0 343.0 L200.0 350.0 z"></path><path stroke="#000000" stroke-width="1.0" stroke-linecap="round" stroke-linejoin="round" fill="none" d="M165.0 301.0 L165.0 321.0 "></path><path stroke="#000000" stroke-width="1.0" stroke-linecap="round" stroke-linejoin="round" fill="none" d="M305.0 301.0 L305.0 321.0 "></path><path stroke="#000000" stroke-width="1.0" stroke-linecap="round" stroke-linejoin="round" fill="none" d="M115.0 105.0 L85.0 105.0 "></path><path stroke="#000000" stroke-width="1.0" stroke-linecap="round" stroke-linejoin="round" fill="none" d="M235.0 175.0 L235.0 203.0 "></path><text x="199" y="82" font-family="sans-serif" font-size="15" stroke="none" fill="#000000"><![CDATA[time stamp?]]></text><text x="231" y="54" font-family="sans-serif" font-size="13" stroke="none" fill="#000000"><![CDATA[N+1]]></text><text x="225" y="138" font-family="sans-serif" font-size="15" stroke="none" fill="#000000"><![CDATA[data?]]></text></g></svg>