<?xml version="1.0" encoding="UTF-8"?><svg xmlns="http://www.w3.org/2000/svg" width="890" height="420" version="1.0" shape-rendering="geometricPrecision"><defs><style type="text/css">@font-face {
  font-family: sans-serif;
}</style><filter id="shadowBlur" x="0" y="0" width="200%" height="200%"><feOffset in="SourceGraphic" dx="3.0003002" dy="3.0003002" result="offOut"></feOffset><feGaussianBlur in="offOut" stdDeviation="3"></feGaussianBlur></filter></defs><g stroke-width="1" stroke-linecap="square" stroke-linejoin="round"><rect x="0" y="0" width="890" height="420" style="fill: #ffffff"></rect><path stroke="#969696" fill="#969696" filter="url(#shadowBlur)" d="M605.0 35.0 L605.0 175.0 L835.0 175.0 L835.0 35.0 z"></path><path stroke="#969696" fill="#969696" filter="url(#shadowBlur)" d="M335.0 35.0 L565.0 35.0 L565.0 175.0 L335.0 175.0 z"></path><path stroke="#969696" fill="#969696" filter="url(#shadowBlur)" d="M65.0 175.0 L65.0 35.0 L295.0 35.0 L295.0 175.0 z"></path><path stroke="#969696" fill="#969696" filter="url(#shadowBlur)" d="M655.0 63.0 L655.0 91.0 L785.0 91.0 L785.0 63.0 z"></path><path stroke="#969696" fill="#969696" filter="url(#shadowBlur)" d="M515.0 63.0 L515.0 91.0 L385.0 91.0 L385.0 63.0 z"></path><path stroke="#969696" fill="#969696" filter="url(#shadowBlur)" d="M245.0 63.0 L245.0 91.0 L115.0 91.0 L115.0 63.0 z"></path><path stroke="#969696" fill="#969696" filter="url(#shadowBlur)" d="M405.0 119.0 L405.0 147.0 L495.0 147.0 L495.0 119.0 z"></path><path stroke="#969696" fill="#969696" filter="url(#shadowBlur)" d="M225.0 119.0 L225.0 147.0 L135.0 147.0 L135.0 119.0 z"></path><path stroke="#969696" fill="#969696" filter="url(#shadowBlur)" d="M675.0 119.0 L675.0 147.0 L765.0 147.0 L765.0 119.0 z"></path><path stroke="#969696" fill="#969696" filter="url(#shadowBlur)" d="M460.0 217.0 Q465.0 217.0 465.0 224.0 L465.0 238.0 Q465.0 245.0 460.0 245.0 L430.0 245.0 L430.0 245.0 Q425.0 245.0 425.0 238.0 L425.0 224.0 L425.0 224.0 Q425.0 217.0 430.0 217.0 L460.0 217.0 z"></path><path stroke="#969696" fill="#969696" filter="url(#shadowBlur)" d="M500.0 273.0 Q495.0 273.0 495.0 280.0 L495.0 294.0 Q495.0 301.0 500.0 301.0 L530.0 301.0 L530.0 301.0 Q535.0 301.0 535.0 294.0 L535.0 280.0 L535.0 280.0 Q535.0 273.0 530.0 273.0 L500.0 273.0 z"></path><path stroke="#969696" fill="#969696" filter="url(#shadowBlur)" d="M530.0 343.0 Q535.0 343.0 535.0 350.0 L535.0 364.0 Q535.0 371.0 530.0 371.0 L500.0 371.0 L500.0 371.0 Q495.0 371.0 495.0 364.0 L495.0 350.0 L495.0 350.0 Q495.0 343.0 500.0 343.0 L530.0 343.0 z"></path><path stroke="#969696" fill="#969696" filter="url(#shadowBlur)" d="M320.0 343.0 Q325.0 343.0 325.0 350.0 L325.0 364.0 Q325.0 371.0 320.0 371.0 L290.0 371.0 L290.0 371.0 Q285.0 371.0 285.0 364.0 L285.0 350.0 L285.0 350.0 Q285.0 343.0 290.0 343.0 L320.0 343.0 z"></path><path stroke="#969696" fill="#969696" filter="url(#shadowBlur)" d="M360.0 273.0 Q355.0 273.0 355.0 280.0 L355.0 294.0 Q355.0 301.0 360.0 301.0 L390.0 301.0 L390.0 301.0 Q395.0 301.0 395.0 294.0 L395.0 280.0 L395.0 280.0 Q395.0 273.0 390.0 273.0 L360.0 273.0 z"></path><path stroke="#969696" fill="#969696" filter="url(#shadowBlur)" d="M390.0 343.0 Q395.0 343.0 395.0 350.0 L395.0 364.0 Q395.0 371.0 390.0 371.0 L360.0 371.0 L360.0 371.0 Q355.0 371.0 355.0 364.0 L355.0 350.0 L355.0 350.0 Q355.0 343.0 360.0 343.0 L390.0 343.0 z"></path><path stroke="#000000" stroke-width="1.0" stroke-linecap="round" stroke-linejoin="round" fill="white" d="M605.0 35.0 L605.0 175.0 L835.0 175.0 L835.0 35.0 z"></path><path stroke="#000000" stroke-width="1.0" stroke-linecap="round" stroke-linejoin="round" fill="white" d="M335.0 35.0 L565.0 35.0 L565.0 175.0 L335.0 175.0 z"></path><path stroke="#000000" stroke-width="1.0" stroke-linecap="round" stroke-linejoin="round" fill="white" d="M65.0 175.0 L65.0 35.0 L295.0 35.0 L295.0 175.0 z"></path><path stroke="#000000" stroke-width="1.0" stroke-linecap="round" stroke-linejoin="round" fill="white" d="M655.0 63.0 L655.0 91.0 L785.0 91.0 L785.0 63.0 z"></path><path stroke="#000000" stroke-width="1.0" stroke-linecap="round" stroke-linejoin="round" fill="white" d="M515.0 63.0 L515.0 91.0 L385.0 91.0 L385.0 63.0 z"></path><path stroke="#000000" stroke-width="1.0" stroke-linecap="round" stroke-linejoin="round" fill="white" d="M245.0 63.0 L245.0 91.0 L115.0 91.0 L115.0 63.0 z"></path><path stroke="#000000" stroke-width="1.0" stroke-linecap="round" stroke-linejoin="round" fill="white" d="M405.0 119.0 L405.0 147.0 L495.0 147.0 L495.0 119.0 z"></path><path stroke="#000000" stroke-width="1.0" stroke-linecap="round" stroke-linejoin="round" fill="white" d="M225.0 119.0 L225.0 147.0 L135.0 147.0 L135.0 119.0 z"></path><path stroke="#000000" stroke-width="1.0" stroke-linecap="round" stroke-linejoin="round" fill="white" d="M675.0 119.0 L675.0 147.0 L765.0 147.0 L765.0 119.0 z"></path><path stroke="#000000" stroke-width="1.0" stroke-linecap="round" stroke-linejoin="round" fill="white" d="M460.0 217.0 Q465.0 217.0 465.0 224.0 L465.0 238.0 Q465.0 245.0 460.0 245.0 L430.0 245.0 L430.0 245.0 Q425.0 245.0 425.0 238.0 L425.0 224.0 L425.0 224.0 Q425.0 217.0 430.0 217.0 L460.0 217.0 z"></path><path stroke="#000000" stroke-width="1.0" stroke-linecap="round" stroke-linejoin="round" fill="white" d="M500.0 273.0 Q495.0 273.0 495.0 280.0 L495.0 294.0 Q495.0 301.0 500.0 301.0 L530.0 301.0 L530.0 301.0 Q535.0 301.0 535.0 294.0 L535.0 280.0 L535.0 280.0 Q535.0 273.0 530.0 273.0 L500.0 273.0 z"></path><path stroke="#000000" stroke-width="1.0" stroke-linecap="round" stroke-linejoin="round" fill="white" d="M530.0 343.0 Q535.0 343.0 535.0 350.0 L535.0 364.0 Q535.0 371.0 530.0 371.0 L500.0 371.0 L500.0 371.0 Q495.0 371.0 495.0 364.0 L495.0 350.0 L495.0 350.0 Q495.0 343.0 500.0 343.0 L530.0 343.0 z"></path><path stroke="#000000" stroke-width="1.0" stroke-linecap="round" stroke-linejoin="round" fill="white" d="M320.0 343.0 Q325.0 343.0 325.0 350.0 L325.0 364.0 Q325.0 371.0 320.0 371.0 L290.0 371.0 L290.0 371.0 Q285.0 371.0 285.0 364.0 L285.0 350.0 L285.0 350.0 Q285.0 343.0 290.0 343.0 L320.0 343.0 z"></path><path stroke="#000000" stroke-width="1.0" stroke-linecap="round" stroke-linejoin="round" fill="white" d="M360.0 273.0 Q355.0 273.0 355.0 280.0 L355.0 294.0 Q355.0 301.0 360.0 301.0 L390.0 301.0 L390.0 301.0 Q395.0 301.0 395.0 294.0 L395.0 280.0 L395.0 280.0 Q395.0 273.0 390.0 273.0 L360.0 273.0 z"></path><path stroke="#000000" stroke-width="1.0" stroke-linecap="round" stroke-linejoin="round" fill="white" d="M390.0 343.0 Q395.0 343.0 395.0 350.0 L395.0 364.0 Q395.0 371.0 390.0 371.0 L360.0 371.0 L360.0 371.0 Q355.0 371.0 355.0 364.0 L355.0 350.0 L355.0 350.0 Q355.0 343.0 360.0 343.0 L390.0 343.0 z"></path><path stroke="#000000" stroke-width="1.0" stroke-linecap="round" stroke-linejoin="round" fill="none" d="M345.0 287.0 L310.0 287.0 Q305.0 287.0 305.0 294.0 L305.0 329.0 L305.0 329.0 "></path><path stroke="#000000" stroke-width="1.0" stroke-dasharray="5.000000,5.000000" stroke-miterlimit="0" stroke-linecap="butt" stroke-linejoin="round" fill="white" d="M405.0 357.0 L440.0 357.0 Q445.0 357.0 445.0 364.0 L445.0 385.0 L445.0 385.0 "></path><path stroke="#000000" stroke-width="1.0" stroke-dasharray="5.000000,5.000000" stroke-miterlimit="0" stroke-linecap="butt" stroke-linejoin="round" fill="white" d="M235.0 385.0 L235.0 364.0 Q235.0 357.0 240.0 357.0 L275.0 357.0 L275.0 357.0 "></path><path stroke="#000000" stroke-width="1.0" stroke-linecap="round" stroke-linejoin="round" fill="none" d="M475.0 231.0 L510.0 231.0 Q515.0 231.0 515.0 238.0 L515.0 259.0 L515.0 259.0 "></path><path stroke="#000000" stroke-width="1.0" stroke-dasharray="5.000000,5.000000" stroke-miterlimit="0" stroke-linecap="butt" stroke-linejoin="round" fill="white" d="M585.0 315.0 L585.0 294.0 Q585.0 287.0 580.0 287.0 L545.0 287.0 L545.0 287.0 "></path><path stroke="#000000" stroke-width="1.0" stroke-linecap="round" stroke-linejoin="round" fill="none" d="M415.0 231.0 L380.0 231.0 Q375.0 231.0 375.0 238.0 L375.0 259.0 L375.0 259.0 "></path><path stroke="none" stroke-width="1.0" stroke-linecap="round" stroke-linejoin="round" fill="#000000" d="M40.0 98.0 L30.0 105.0 L40.0 112.0 z"></path><path stroke="none" stroke-width="1.0" stroke-linecap="round" stroke-linejoin="round" fill="#000000" d="M310.0 98.0 L300.0 105.0 L310.0 112.0 z"></path><path stroke="none" stroke-width="1.0" stroke-linecap="round" stroke-linejoin="round" fill="#000000" d="M580.0 98.0 L570.0 105.0 L580.0 112.0 z"></path><path stroke="none" stroke-width="1.0" stroke-linecap="round" stroke-linejoin="round" fill="#000000" d="M850.0 98.0 L840.0 105.0 L850.0 112.0 z"></path><path stroke="none" stroke-width="1.0" stroke-linecap="round" stroke-linejoin="round" fill="#000000" d="M440.0 196.0 L445.0 210.0 L450.0 196.0 z"></path><path stroke="none" stroke-width="1.0" stroke-linecap="round" stroke-linejoin="round" fill="#000000" d="M370.0 252.0 L375.0 266.0 L380.0 252.0 z"></path><path stroke="none" stroke-width="1.0" stroke-linecap="round" stroke-linejoin="round" fill="#000000" d="M510.0 252.0 L515.0 266.0 L520.0 252.0 z"></path><path stroke="none" stroke-width="1.0" stroke-linecap="round" stroke-linejoin="round" fill="#000000" d="M580.0 308.0 L585.0 322.0 L590.0 308.0 z"></path><path stroke="none" stroke-width="1.0" stroke-linecap="round" stroke-linejoin="round" fill="#000000" d="M300.0 322.0 L305.0 336.0 L310.0 322.0 z"></path><path stroke="none" stroke-width="1.0" stroke-linecap="round" stroke-linejoin="round" fill="#000000" d="M370.0 322.0 L375.0 336.0 L380.0 322.0 z"></path><path stroke="none" stroke-width="1.0" stroke-linecap="round" stroke-linejoin="round" fill="#000000" d="M510.0 322.0 L515.0 336.0 L520.0 322.0 z"></path><path stroke="none" stroke-width="1.0" stroke-linecap="round" stroke-linejoin="round" fill="#000000" d="M230.0 378.0 L235.0 392.0 L240.0 378.0 z"></path><path stroke="none" stroke-width="1.0" stroke-linecap="round" stroke-linejoin="round" fill="#000000" d="M440.0 378.0 L445.0 392.0 L450.0 378.0 z"></path><path stroke="#000000" stroke-width="1.0" stroke-linecap="round" stroke-linejoin="round" fill="none" d="M515.0 308.0 L515.0 329.0 "></path><path stroke="#000000" stroke-width="1.0" stroke-linecap="round" stroke-linejoin="round" fill="none" d="M375.0 308.0 L375.0 329.0 "></path><path stroke="#000000" stroke-width="1.0" stroke-linecap="round" stroke-linejoin="round" fill="none" d="M445.0 175.0 L445.0 203.0 "></path><path stroke="#000000" stroke-width="1.0" stroke-dasharray="5.000000,5.000000" stroke-miterlimit="0" stroke-linecap="butt" stroke-linejoin="round" fill="white" d="M55.0 105.0 L35.0 105.0 "></path><path stroke="#000000" stroke-width="1.0" stroke-linecap="round" stroke-linejoin="round" fill="none" d="M325.0 105.0 L305.0 105.0 "></path><path stroke="#000000" stroke-width="1.0" stroke-linecap="round" stroke-linejoin="round" fill="none" d="M595.0 105.0 L575.0 105.0 "></path><path stroke="#000000" stroke-width="1.0" stroke-dasharray="5.000000,5.000000" stroke-miterlimit="0" stroke-linecap="butt" stroke-linejoin="round" fill="white" d="M865.0 105.0 L845.0 105.0 "></path><text x="703" y="138" font-family="sans-serif" font-size="15" stroke="none" fill="#000000"><![CDATA[data]]></text><text x="149" y="54" font-family="sans-serif" font-size="15" stroke="none" fill="#000000"><![CDATA[Block N˗1]]></text><text x="138" y="82" font-family="sans-serif" font-size="15" stroke="none" fill="#000000"><![CDATA[time stamp]]></text><text x="417" y="54" font-family="sans-serif" font-size="15" stroke="none" fill="#000000"><![CDATA[Block N]]></text><text x="408" y="82" font-family="sans-serif" font-size="15" stroke="none" fill="#000000"><![CDATA[time stamp]]></text><text x="676" y="54" font-family="sans-serif" font-size="15" stroke="none" fill="#000000"><![CDATA[Block N+1]]></text><text x="163" y="138" font-family="sans-serif" font-size="15" stroke="none" fill="#000000"><![CDATA[data]]></text><text x="678" y="82" font-family="sans-serif" font-size="15" stroke="none" fill="#000000"><![CDATA[time stamp]]></text><text x="433" y="138" font-family="sans-serif" font-size="15" stroke="none" fill="#000000"><![CDATA[data]]></text></g></svg>