<?xml version="1.0" encoding="UTF-8"?><svg xmlns="http://www.w3.org/2000/svg" width="600" height="210" version="1.0" shape-rendering="geometricPrecision"><defs><style type="text/css">@font-face {
  font-family: sans-serif;
}</style><filter id="shadowBlur" x="0" y="0" width="200%" height="200%"><feOffset in="SourceGraphic" dx="3.0003002" dy="3.0003002" result="offOut"></feOffset><feGaussianBlur in="offOut" stdDeviation="3"></feGaussianBlur></filter></defs><g stroke-width="1" stroke-linecap="square" stroke-linejoin="round"><rect x="0" y="0" width="600" height="210" style="fill: #ffffff"></rect><path stroke="#969696" fill="#969696" filter="url(#shadowBlur)" d="M65.0 175.0 L65.0 35.0 L295.0 35.0 L295.0 175.0 z"></path><path stroke="#969696" fill="#969696" filter="url(#shadowBlur)" d="M245.0 63.0 L245.0 91.0 L115.0 91.0 L115.0 63.0 z"></path><path stroke="#969696" fill="#969696" filter="url(#shadowBlur)" d="M225.0 119.0 L225.0 147.0 L135.0 147.0 L135.0 119.0 z"></path><path stroke="#000000" stroke-width="1.0" stroke-dasharray="5.000000,5.000000" stroke-miterlimit="0" stroke-linecap="butt" stroke-linejoin="round" fill="white" d="M575.0 175.0 L575.0 35.0 L345.0 35.0 L345.0 175.0 z"></path><path stroke="#000000" stroke-width="1.0" stroke-linecap="round" stroke-linejoin="round" fill="#0077ff" d="M65.0 175.0 L65.0 35.0 L295.0 35.0 L295.0 175.0 z"></path><path stroke="#000000" stroke-width="1.0" stroke-linecap="round" stroke-linejoin="round" fill="white" d="M245.0 63.0 L245.0 91.0 L115.0 91.0 L115.0 63.0 z"></path><path stroke="#000000" stroke-width="1.0" stroke-linecap="round" stroke-linejoin="round" fill="white" d="M225.0 119.0 L225.0 147.0 L135.0 147.0 L135.0 119.0 z"></path><path stroke="none" stroke-width="1.0" stroke-linecap="round" stroke-linejoin="round" fill="#000000" d="M40.0 98.0 L30.0 105.0 L40.0 112.0 z"></path><path stroke="none" stroke-width="1.0" stroke-linecap="round" stroke-linejoin="round" fill="#000000" d="M310.0 98.0 L300.0 105.0 L310.0 112.0 z"></path><path stroke="#000000" stroke-width="1.0" stroke-dasharray="5.000000,5.000000" stroke-miterlimit="0" stroke-linecap="butt" stroke-linejoin="round" fill="white" d="M335.0 105.0 L305.0 105.0 "></path><path stroke="#000000" stroke-width="1.0" stroke-linecap="round" stroke-linejoin="round" fill="none" d="M55.0 105.0 L35.0 105.0 "></path><text x="138" y="82" font-family="sans-serif" font-size="15" stroke="none" fill="#000000"><![CDATA[time stamp]]></text><text x="163" y="138" font-family="sans-serif" font-size="15" stroke="none" fill="#000000"><![CDATA[data]]></text></g></svg>